# xmcd
#
# Track frame offsets:
#	150
#	15311
#	41240
#	55042
#	75107
#	103424
#	126497
#	147564
#	183653
#	216753
#
# Disc length: 4519 seconds
#
# Revision: 4
# Processed by: cddbd v1.5.2PL0 Copyright (c) Steve Scherf et al.
# Submitted via: EZCDAudioConverter 2.1.7.1
#
DISCID=8d11a50a
DTITLE=V/A - Real World Notes V14
DYEAR=1900
DGENRE=
TTITLE0=Blind Boys Of Alabama - People Get Ready
TTITLE1=Misty In Roots - Cover Up
TTITLE2=Pina - Cold Storm
TTITLE3=Pape and Cheikh - Mariama
TTITLE4=Tama - Ibata
TTITLE5=Adrian Sherwood - Hari Up Hari
TTITLE6=Joseph Arthur - Honey And The Moon
TTITLE7=Rahul Sharma - Maqam-E-Navaa [Extract]
TTITLE8=Peter Gabriel - Cloudless
TTITLE9=Various Artist - Interactive Track
EXTD=
EXTT0=
EXTT1=
EXTT2=
EXTT3=
EXTT4=
EXTT5=
EXTT6=
EXTT7=
EXTT8=
EXTT9=
PLAYORDER=
